<svg xmlns="http://www.w3.org/2000/svg" xmlns:xlink="http://www.w3.org/1999/xlink" width="500" zoomAndPan="magnify" viewBox="0 0 375 374.999991" height="500" preserveAspectRatio="xMidYMid meet" version="1.0"><defs><g/></defs><rect x="-37.5" width="450" fill="#ffffff" y="-37.499999" height="449.999989" fill-opacity="1"/><rect x="-37.5" width="450" fill="#ffffff" y="-37.499999" height="449.999989" fill-opacity="1"/><rect x="-37.5" width="450" fill="#e8c8a4" y="-37.499999" height="449.999989" fill-opacity="1"/><path fill="#cb2f2f" d="M 173.664062 70.988281 C 171.132812 68.453125 166.359375 69.203125 165.421875 79.246094 C 164.300781 90.324219 181.246094 99.992188 194.542969 94.546875 C 207.839844 89.007812 205.3125 69.015625 198.945312 66.949219 C 192.015625 64.699219 191.828125 67.421875 187.425781 72.863281 C 182.464844 79.058594 173.664062 70.988281 173.664062 70.988281 Z M 173.664062 70.988281 " fill-opacity="1" fill-rule="nonzero"/><path fill="#e8c8a4" d="M 133.773438 189.066406 C 140.140625 201.832031 129.09375 240.691406 135.648438 244.445312 C 142.203125 248.199219 243.328125 249.140625 246.136719 244.445312 C 248.945312 239.753906 241.453125 221.917969 248.007812 210.65625 C 254.5625 199.390625 266.734375 182.496094 260.179688 180.617188 C 253.625 178.742188 220.855469 185.21875 192.765625 186.25 C 140.328125 188.128906 125.347656 172.171875 133.773438 189.066406 Z M 133.773438 189.066406 " fill-opacity="1" fill-rule="nonzero"/><path fill="#000000" d="M 255.59375 173.578125 C 255.40625 172.453125 254.84375 171.421875 254.09375 170.667969 C 253.34375 169.824219 252.316406 169.261719 251.191406 168.980469 C 250.628906 168.886719 250.066406 168.792969 249.507812 168.886719 L 248.476562 168.980469 C 245.855469 169.261719 243.234375 169.542969 240.515625 169.730469 C 237.519531 170.011719 234.523438 170.292969 231.527344 170.480469 C 228.8125 170.667969 226.191406 170.761719 223.476562 170.949219 C 211.867188 171.515625 200.160156 171.703125 188.550781 171.328125 C 176.941406 170.949219 165.328125 170.199219 154 168.136719 C 148.382812 167.101562 142.761719 165.789062 137.613281 163.628906 L 136.675781 163.253906 L 135.742188 162.785156 C 135.085938 162.503906 134.523438 162.222656 133.867188 161.847656 C 132.746094 161.1875 131.527344 160.53125 130.496094 159.6875 C 129.46875 158.9375 128.625 158.089844 127.96875 157.152344 C 127.40625 156.308594 127.125 155.464844 127.21875 154.710938 C 127.3125 153.867188 127.6875 152.929688 128.34375 151.898438 C 129 150.957031 129.84375 150.019531 130.871094 149.082031 C 132.839844 147.296875 135.085938 145.703125 137.519531 144.199219 C 139.953125 142.699219 142.390625 141.289062 144.917969 139.976562 C 146.789062 138.945312 148.757812 138.003906 150.722656 137.066406 C 153.15625 139.695312 156.152344 141.570312 159.148438 142.980469 C 162.800781 144.667969 166.640625 145.796875 170.480469 146.640625 C 178.15625 148.328125 185.835938 148.800781 193.511719 148.800781 C 201.191406 148.800781 208.871094 148.140625 216.453125 146.828125 C 220.292969 146.171875 224.039062 145.328125 227.878906 144.011719 C 229.75 143.355469 231.621094 142.605469 233.496094 141.570312 C 233.964844 141.289062 234.429688 141.007812 234.898438 140.726562 C 235.367188 140.445312 235.835938 140.070312 236.304688 139.695312 C 237.242188 138.851562 238.175781 137.910156 238.832031 136.316406 C 239.113281 135.566406 239.394531 134.71875 239.394531 133.78125 C 239.394531 132.84375 239.207031 131.996094 238.832031 131.246094 C 238.175781 129.746094 237.242188 128.710938 236.304688 127.960938 C 235.367188 127.210938 234.523438 126.554688 233.496094 125.992188 C 232.464844 125.425781 231.527344 124.957031 230.5 124.582031 C 226.566406 123.082031 222.726562 122.421875 218.792969 121.953125 C 211.023438 121.015625 203.4375 120.921875 195.761719 121.296875 C 188.082031 121.671875 180.5 122.515625 173.007812 123.832031 C 166.359375 125.050781 159.617188 126.554688 153.15625 128.898438 C 152.96875 128.242188 152.78125 127.585938 152.6875 126.929688 C 152.6875 126.554688 152.59375 126.179688 152.59375 125.804688 L 152.6875 124.675781 C 152.6875 123.925781 152.875 123.175781 152.96875 122.328125 C 153.625 119.328125 155.308594 116.511719 157.652344 114.070312 C 159.992188 111.628906 162.800781 109.660156 165.890625 107.875 C 168.699219 106.277344 171.601562 104.964844 174.597656 103.839844 C 182.277344 107.125 190.421875 109.375 198.757812 110.316406 C 203.15625 110.785156 207.558594 110.878906 212.144531 110.128906 C 214.394531 109.753906 216.734375 109.09375 218.980469 107.78125 C 220.105469 107.125 221.136719 106.375 222.070312 105.339844 C 223.007812 104.308594 223.757812 103.183594 224.226562 101.492188 C 224.414062 100.648438 224.414062 99.707031 224.226562 98.769531 C 223.945312 97.832031 223.476562 96.988281 222.914062 96.328125 C 221.789062 95.015625 220.574219 94.453125 219.355469 93.890625 C 217.015625 92.949219 214.769531 92.574219 212.519531 92.292969 C 208.027344 91.824219 203.71875 91.917969 199.320312 92.292969 C 190.984375 93.042969 182.746094 94.734375 174.785156 97.457031 C 170.855469 95.578125 167.109375 93.421875 163.832031 90.699219 C 162.144531 89.195312 160.554688 87.601562 159.335938 85.816406 C 158.121094 84.035156 157.371094 82.15625 157.183594 80.183594 C 156.996094 78.214844 157.464844 76.242188 158.492188 74.367188 C 158.585938 74.179688 158.679688 73.898438 158.867188 73.613281 L 159.335938 72.863281 C 159.617188 72.394531 159.992188 71.925781 160.273438 71.363281 C 160.929688 70.421875 161.585938 69.484375 162.332031 68.640625 C 163.738281 66.855469 165.328125 65.261719 167.015625 64.417969 C 168.699219 63.570312 170.199219 63.757812 171.695312 64.980469 C 172.445312 65.636719 173.101562 66.386719 173.664062 67.324219 C 173.757812 67.515625 174.039062 67.984375 174.316406 68.265625 C 174.597656 68.640625 174.972656 68.921875 175.347656 69.203125 C 176.097656 69.671875 177.035156 69.953125 177.96875 69.953125 C 178.90625 69.953125 179.84375 69.765625 180.589844 69.203125 C 181.433594 68.734375 181.996094 67.984375 182.464844 67.136719 L 182.839844 66.292969 C 182.933594 66.105469 183.121094 65.824219 183.214844 65.636719 C 183.496094 65.167969 183.773438 64.792969 184.054688 64.417969 C 185.367188 62.820312 187.144531 61.601562 189.113281 60.945312 C 191.078125 60.285156 193.140625 60.285156 195.011719 61.132812 C 196.789062 61.976562 198.289062 63.476562 199.414062 65.449219 C 200.535156 67.421875 201.566406 69.484375 202.035156 71.644531 C 202.503906 73.707031 202.503906 75.960938 201.566406 77.652344 C 201.097656 78.496094 200.441406 79.246094 199.597656 79.714844 L 199.320312 79.902344 L 199.226562 79.996094 C 199.226562 79.996094 199.320312 79.996094 199.132812 79.996094 C 198.945312 80.089844 198.851562 80.089844 198.757812 80.183594 C 198.289062 80.5625 198.007812 81.125 198.101562 81.6875 C 198.101562 82.25 198.476562 82.8125 198.945312 83.1875 C 199.414062 83.46875 200.160156 83.5625 200.628906 83.28125 C 200.816406 83.1875 201.003906 83.09375 201.191406 83 C 201.472656 82.8125 201.847656 82.625 202.128906 82.4375 C 204.46875 80.84375 205.871094 78.121094 206.152344 75.398438 C 206.433594 72.675781 205.78125 70.046875 204.84375 67.796875 C 204.375 66.574219 203.8125 65.449219 203.25 64.417969 C 202.96875 63.851562 202.597656 63.382812 202.316406 62.820312 C 201.941406 62.257812 201.566406 61.695312 201.191406 61.226562 C 199.597656 59.160156 197.257812 57.5625 194.636719 57 C 192.015625 56.4375 189.300781 56.8125 186.957031 57.847656 C 184.617188 58.878906 182.464844 60.566406 180.964844 62.632812 C 180.589844 63.195312 180.21875 63.664062 179.9375 64.324219 C 179.75 64.605469 179.65625 64.886719 179.46875 65.167969 L 179.28125 65.542969 C 179.28125 65.636719 179.1875 65.730469 179.1875 65.730469 C 178.8125 66.199219 177.875 66.292969 177.410156 65.824219 C 177.316406 65.730469 177.316406 65.730469 177.222656 65.636719 C 177.128906 65.542969 177.128906 65.542969 177.035156 65.355469 C 176.847656 65.074219 176.660156 64.792969 176.472656 64.605469 C 176.097656 64.039062 175.722656 63.570312 175.253906 63.101562 C 174.410156 62.164062 173.382812 61.226562 172.070312 60.660156 C 170.855469 60.097656 169.355469 59.816406 168.042969 60.097656 C 167.578125 60.191406 167.203125 60.285156 166.734375 60.378906 C 166.265625 60.472656 165.796875 60.660156 165.421875 60.847656 C 162.800781 62.164062 161.023438 64.039062 159.335938 66.011719 C 158.492188 66.949219 157.746094 67.984375 157.089844 69.015625 C 156.714844 69.484375 156.339844 70.046875 156.058594 70.609375 L 155.589844 71.363281 C 155.402344 71.644531 155.3125 71.925781 155.125 72.207031 C 153.8125 74.554688 152.96875 77.371094 153.15625 80.183594 C 153.34375 83 154.46875 85.722656 155.964844 87.882812 C 157.464844 90.136719 159.242188 92.011719 161.117188 93.703125 C 163.832031 96.046875 166.734375 97.925781 169.824219 99.613281 C 167.578125 100.554688 165.328125 101.585938 163.175781 102.804688 C 159.804688 104.683594 156.527344 107.03125 153.625 109.941406 C 152.21875 111.347656 150.910156 113.039062 149.785156 114.820312 C 149.316406 115.757812 148.757812 116.699219 148.382812 117.730469 L 147.820312 119.230469 L 147.539062 119.984375 C 147.445312 120.265625 147.445312 120.546875 147.351562 120.734375 C 147.164062 121.765625 146.882812 122.894531 146.882812 123.925781 L 146.789062 125.519531 C 146.789062 126.085938 146.789062 126.648438 146.882812 127.210938 C 147.070312 128.710938 147.445312 130.121094 148.101562 131.527344 C 146.039062 132.5625 144.074219 133.5 142.015625 134.625 C 139.394531 136.035156 136.769531 137.535156 134.242188 139.132812 C 131.714844 140.820312 129.1875 142.511719 126.847656 144.761719 C 125.722656 145.890625 124.597656 147.109375 123.570312 148.519531 C 122.632812 149.925781 121.789062 151.804688 121.601562 153.867188 C 121.507812 154.898438 121.695312 156.027344 121.976562 156.964844 C 122.257812 157.996094 122.820312 158.84375 123.289062 159.59375 C 124.410156 161.09375 125.722656 162.222656 127.03125 163.253906 C 128.34375 164.285156 129.75 164.945312 131.152344 165.695312 C 131.808594 166.070312 132.558594 166.351562 133.304688 166.632812 L 134.335938 167.101562 L 135.367188 167.476562 C 138.457031 168.699219 141.546875 169.542969 144.636719 170.292969 C 149.785156 171.609375 155.03125 172.546875 160.367188 173.203125 C 165.703125 173.859375 171.042969 174.328125 176.378906 174.707031 C 187.050781 175.363281 197.820312 175.363281 208.496094 175.175781 C 219.167969 174.894531 229.84375 174.425781 240.519531 173.578125 C 243.140625 173.390625 245.855469 173.109375 248.476562 172.921875 L 249.414062 172.828125 C 249.507812 172.828125 249.601562 172.828125 249.695312 172.828125 C 249.882812 172.828125 250.066406 173.015625 250.160156 173.109375 C 250.441406 173.484375 250.535156 173.859375 250.347656 174.234375 L 248.476562 177.519531 C 247.820312 178.742188 247.164062 179.867188 246.605469 181.089844 C 245.386719 183.527344 244.167969 185.875 243.046875 188.316406 C 240.703125 193.195312 238.457031 198.078125 236.492188 203.144531 C 234.523438 208.214844 232.746094 213.472656 232.183594 219.289062 C 231.902344 222.199219 232.089844 225.109375 232.371094 227.738281 L 232.558594 229.804688 C 232.652344 230.273438 232.652344 230.460938 232.652344 230.554688 C 232.652344 230.554688 232.558594 230.648438 232.371094 230.835938 C 232.089844 231.023438 231.621094 231.210938 231.152344 231.398438 C 230.125 231.773438 228.90625 231.960938 227.691406 232.148438 C 226.472656 232.335938 225.160156 232.429688 223.851562 232.523438 L 215.890625 233.277344 C 205.3125 234.214844 194.824219 234.683594 184.242188 234.402344 C 173.570312 234.121094 162.894531 233.933594 152.3125 233.371094 C 147.070312 233.089844 141.734375 232.710938 136.582031 231.867188 C 135.273438 231.679688 134.054688 231.398438 132.839844 231.117188 C 131.621094 230.742188 130.496094 230.367188 129.5625 229.898438 C 129.1875 229.617188 128.71875 229.332031 128.625 229.144531 C 128.53125 229.050781 128.625 229.050781 128.53125 228.957031 C 128.53125 228.957031 128.53125 228.863281 128.53125 228.863281 C 128.53125 228.863281 128.53125 228.863281 128.53125 228.769531 L 128.53125 226.234375 C 128.53125 225.953125 128.625 225.578125 128.625 225.109375 C 128.625 224.734375 128.625 224.359375 128.625 223.984375 C 128.4375 221.261719 128.15625 218.632812 127.96875 215.910156 L 127.59375 211.875 L 127.40625 209.902344 L 127.125 207.839844 C 126.191406 202.394531 124.222656 197.234375 122.070312 192.351562 C 120.945312 189.910156 119.730469 187.472656 118.511719 185.125 L 117.574219 183.339844 L 117.296875 182.871094 L 117.203125 182.683594 L 117.390625 183.152344 C 117.390625 183.152344 117.296875 183.058594 117.203125 182.871094 C 116.828125 182.402344 116.265625 182.214844 115.703125 182.308594 C 115.140625 182.402344 114.671875 182.777344 114.484375 183.339844 C 114.484375 183.714844 114.484375 183.996094 114.484375 184.1875 C 114.484375 184.28125 114.578125 184.46875 114.578125 184.5625 L 114.671875 184.75 L 114.953125 185.21875 L 115.421875 186.0625 L 116.359375 187.847656 C 118.792969 192.539062 121.039062 197.421875 122.726562 202.394531 C 123.570312 204.929688 124.222656 207.464844 124.503906 209.996094 C 124.785156 212.625 125.066406 215.347656 125.253906 217.976562 L 125.535156 221.355469 C 125.628906 222.480469 125.722656 223.703125 125.722656 224.828125 C 125.722656 225.109375 125.722656 225.484375 125.722656 225.671875 C 125.722656 225.953125 125.628906 226.140625 125.628906 226.519531 L 125.535156 228.675781 L 125.535156 229.992188 C 125.535156 230.273438 125.628906 230.554688 125.722656 230.835938 C 125.816406 231.117188 125.910156 231.398438 126.097656 231.585938 C 126.660156 232.523438 127.40625 233.089844 128.0625 233.558594 C 129.46875 234.402344 130.777344 234.871094 132.183594 235.339844 C 133.585938 235.714844 134.898438 236 136.210938 236.28125 C 141.546875 237.3125 146.976562 237.78125 152.3125 238.25 C 162.988281 239.09375 173.664062 239.472656 184.335938 239.847656 C 189.675781 240.035156 195.105469 240.128906 200.441406 239.941406 C 205.78125 239.753906 211.210938 239.472656 216.546875 239 L 224.507812 238.34375 C 227.128906 238.0625 229.9375 237.96875 232.933594 237.03125 C 233.683594 236.75 234.523438 236.46875 235.273438 235.902344 C 236.117188 235.433594 237.054688 234.589844 237.613281 233.277344 C 238.175781 231.960938 237.894531 230.648438 237.894531 230.085938 L 237.707031 228.113281 C 237.425781 225.484375 237.335938 223.046875 237.519531 220.605469 C 237.988281 215.722656 239.675781 210.75 241.453125 205.867188 C 243.328125 200.988281 245.574219 196.199219 247.820312 191.320312 C 248.945312 188.878906 250.066406 186.53125 251.285156 184.1875 C 251.847656 182.964844 252.503906 181.839844 253.066406 180.710938 L 254 178.929688 L 254.46875 178.085938 L 254.75 177.617188 L 254.9375 177.332031 C 255.03125 177.238281 255.03125 177.050781 255.125 176.957031 C 255.59375 175.925781 255.78125 174.707031 255.59375 173.578125 Z M 173.757812 129.933594 C 180.964844 129.089844 188.175781 128.617188 195.386719 128.429688 C 202.597656 128.242188 209.804688 128.054688 216.921875 128.617188 C 220.480469 128.898438 223.945312 129.464844 227.316406 130.308594 L 228.53125 130.683594 L 229.65625 131.058594 C 229.84375 131.152344 229.9375 131.152344 230.125 131.246094 C 230.21875 131.339844 230.40625 131.339844 230.5 131.433594 C 231.152344 131.808594 231.808594 132.28125 232.277344 132.65625 C 232.746094 133.125 233.121094 133.5 233.214844 133.78125 C 233.308594 133.96875 233.308594 133.96875 233.214844 134.25 C 233.214844 134.4375 232.746094 134.90625 232.277344 135.28125 C 231.996094 135.46875 231.808594 135.753906 231.433594 135.941406 C 231.152344 136.128906 230.78125 136.316406 230.40625 136.503906 C 229 137.253906 227.410156 137.910156 225.722656 138.472656 C 222.351562 139.601562 218.792969 140.445312 215.238281 141.101562 C 209.617188 142.136719 203.8125 142.699219 198.007812 142.980469 C 196.414062 142.886719 194.824219 142.886719 193.230469 142.792969 C 189.675781 142.605469 186.023438 142.417969 182.464844 142.230469 C 178.90625 141.945312 175.347656 141.570312 171.789062 141.007812 C 170.292969 140.726562 168.699219 140.445312 167.203125 140.164062 C 165.140625 139.601562 163.175781 138.851562 161.304688 138.003906 C 159.148438 136.972656 157.089844 135.753906 155.496094 134.25 C 160.554688 132.5625 165.796875 131.246094 171.132812 130.214844 C 172.070312 130.214844 172.914062 130.027344 173.757812 129.933594 Z M 200.253906 98.019531 C 212.425781 98.019531 214.769531 98.769531 216.453125 99.144531 C 217.296875 99.332031 218.046875 99.613281 218.511719 99.898438 C 218.605469 99.992188 218.699219 99.992188 218.792969 100.085938 C 218.886719 100.179688 218.886719 100.179688 218.980469 100.273438 C 219.074219 100.367188 219.074219 100.367188 219.167969 100.554688 C 219.167969 100.648438 219.167969 100.648438 219.167969 100.742188 C 219.167969 100.929688 218.980469 101.210938 218.886719 101.492188 C 218.699219 101.773438 218.511719 102.054688 218.234375 102.335938 C 217.765625 102.898438 217.109375 103.371094 216.359375 103.746094 C 214.863281 104.589844 213.082031 105.152344 211.210938 105.433594 C 209.054688 105.808594 206.808594 105.902344 204.5625 105.902344 C 193.792969 105.714844 183.402344 101.867188 183.402344 101.867188 C 182.464844 101.585938 181.527344 101.210938 180.5 100.835938 C 180.871094 100.554688 196.414062 98.019531 200.253906 98.019531 Z M 200.160156 82.90625 Z M 116.546875 183.621094 Z M 116.546875 183.621094 " fill-opacity="1" fill-rule="nonzero"/><path fill="#000000" d="M 177.222656 49.960938 C 177.316406 50.898438 177.40625 51.839844 177.5 52.777344 L 177.59375 54.183594 L 177.6875 54.9375 C 177.6875 55.21875 177.96875 55.5 178.34375 55.5 C 178.625 55.5 178.90625 55.21875 179 54.9375 L 179 54.183594 C 179 53.714844 179 53.246094 179 52.777344 C 179 51.839844 179 50.898438 179.09375 49.960938 C 179.1875 48.085938 179.375 46.207031 179.5625 44.328125 C 179.9375 40.574219 180.125 36.820312 180.5 33.160156 C 180.589844 31.28125 180.871094 29.5 181.058594 27.621094 C 181.246094 25.839844 181.621094 23.960938 181.996094 22.273438 C 182.464844 20.488281 183.027344 18.800781 183.773438 17.296875 C 184.148438 16.546875 184.710938 15.890625 185.273438 15.417969 C 185.554688 15.136719 185.929688 15.042969 186.210938 14.855469 C 186.210938 14.855469 186.210938 14.855469 186.304688 14.855469 C 186.398438 14.855469 186.492188 14.761719 186.492188 14.761719 C 186.679688 14.667969 186.773438 14.574219 186.867188 14.480469 C 187.050781 14.199219 187.144531 13.917969 187.144531 13.542969 C 187.144531 12.886719 186.585938 12.324219 185.929688 12.324219 C 185.835938 12.324219 185.554688 12.324219 185.554688 12.417969 L 184.992188 12.699219 C 184.710938 12.792969 184.523438 12.886719 184.335938 13.074219 L 183.683594 13.542969 C 183.496094 13.730469 183.308594 13.917969 183.121094 14.105469 C 182.371094 14.855469 181.902344 15.703125 181.339844 16.546875 C 180.40625 18.234375 179.84375 20.113281 179.28125 21.894531 C 178.25 25.558594 177.316406 29.3125 176.847656 33.066406 C 176.472656 34.847656 176.285156 36.726562 176.285156 38.605469 C 176.285156 40.480469 176.378906 42.359375 176.566406 44.328125 C 176.753906 46.207031 177.035156 48.085938 177.222656 49.960938 Z M 177.222656 49.960938 " fill-opacity="1" fill-rule="nonzero"/><path fill="#e8c8a4" d="M 151.191406 151.898438 C 155.03125 154.804688 164.019531 161.28125 185.835938 162.785156 C 213.269531 164.664062 249.507812 155.371094 245.949219 149.738281 C 242.390625 144.199219 233.121094 152.367188 219.074219 155.183594 C 200.628906 158.84375 189.394531 159.875 170.855469 155.277344 C 154.5625 151.238281 148.570312 145.234375 149.035156 148.519531 C 149.035156 149.082031 150.160156 151.144531 151.191406 151.898438 Z M 151.191406 151.898438 " fill-opacity="1" fill-rule="nonzero"/><g fill="#000000" fill-opacity="1"><g transform="translate(22.44604, 312.922148)"><g><path d="M 35.046875 -23.578125 L 27.765625 -43.875 L 20.203125 -23.578125 Z M 60.890625 -4.453125 L 60.890625 0 L 34.125 0 L 34.125 -4.453125 L 41.59375 -5.375 L 36.859375 -18.5625 L 18.390625 -18.5625 L 13.5625 -5.640625 L 20.9375 -4.546875 L 20.9375 0 L 0.453125 0 L 0.453125 -4.546875 L 8.5625 -5.734375 L 28.765625 -59.609375 L 34.21875 -59.609375 L 54.875 -5.1875 Z M 60.890625 -4.453125 "/></g></g></g><g fill="#000000" fill-opacity="1"><g transform="translate(83.700892, 312.922148)"><g><path d="M 54.796875 -4 L 54.796875 0 L 31.484375 0 L 31.484375 -4 L 37.046875 -5.09375 C 37.109375 -7.34375 37.140625 -9.738281 37.140625 -12.28125 C 37.140625 -14.832031 37.140625 -17.109375 37.140625 -19.109375 L 37.140625 -27.84375 C 37.140625 -31.300781 36.773438 -33.832031 36.046875 -35.4375 C 35.316406 -37.050781 33.890625 -37.859375 31.765625 -37.859375 C 30.003906 -37.859375 28.289062 -37.390625 26.625 -36.453125 C 24.957031 -35.515625 23.242188 -34.195312 21.484375 -32.5 L 21.484375 -19.109375 C 21.484375 -17.171875 21.484375 -14.910156 21.484375 -12.328125 C 21.484375 -9.753906 21.515625 -7.34375 21.578125 -5.09375 L 26.765625 -4 L 26.765625 0 L 3.453125 0 L 3.453125 -4 L 9.015625 -5.09375 C 9.066406 -7.40625 9.09375 -9.832031 9.09375 -12.375 C 9.09375 -14.925781 9.09375 -17.171875 9.09375 -19.109375 L 9.09375 -24.296875 C 9.09375 -25.578125 9.09375 -26.6875 9.09375 -27.625 C 9.09375 -28.5625 9.078125 -29.4375 9.046875 -30.25 C 9.023438 -31.070312 9 -31.863281 8.96875 -32.625 C 8.9375 -33.382812 8.890625 -34.21875 8.828125 -35.125 L 2.734375 -35.953125 L 2.734375 -39.40625 L 19.203125 -45.328125 L 20.5625 -44.421875 L 21.203125 -37.21875 C 22.484375 -38.675781 23.679688 -39.90625 24.796875 -40.90625 C 25.921875 -41.90625 27.054688 -42.738281 28.203125 -43.40625 C 29.359375 -44.082031 30.554688 -44.570312 31.796875 -44.875 C 33.046875 -45.175781 34.460938 -45.328125 36.046875 -45.328125 C 40.410156 -45.328125 43.742188 -44.035156 46.046875 -41.453125 C 48.359375 -38.878906 49.515625 -34.832031 49.515625 -29.3125 L 49.515625 -19.109375 C 49.515625 -17.109375 49.515625 -14.816406 49.515625 -12.234375 C 49.515625 -9.660156 49.546875 -7.28125 49.609375 -5.09375 Z M 54.796875 -4 "/></g></g></g><g fill="#000000" fill-opacity="1"><g transform="translate(140.495886, 312.922148)"><g><path d="M 34.125 -35.3125 C 32.851562 -36.21875 31.59375 -36.941406 30.34375 -37.484375 C 29.101562 -38.035156 27.847656 -38.3125 26.578125 -38.3125 C 25.242188 -38.3125 23.96875 -37.976562 22.75 -37.3125 C 21.539062 -36.644531 20.460938 -35.644531 19.515625 -34.3125 C 18.578125 -32.976562 17.816406 -31.296875 17.234375 -29.265625 C 16.660156 -27.234375 16.375 -24.820312 16.375 -22.03125 C 16.375 -16.507812 17.300781 -12.410156 19.15625 -9.734375 C 21.007812 -7.066406 23.300781 -5.734375 26.03125 -5.734375 C 27.363281 -5.734375 28.710938 -6.019531 30.078125 -6.59375 C 31.441406 -7.175781 32.789062 -7.921875 34.125 -8.828125 Z M 51.78125 -4 L 51.78125 0 L 35.21875 0.90625 L 34.5 -4.453125 C 32.675781 -2.578125 30.703125 -1.140625 28.578125 -0.140625 C 26.453125 0.859375 23.992188 1.359375 21.203125 1.359375 C 18.660156 1.359375 16.28125 0.875 14.0625 -0.09375 C 11.84375 -1.0625 9.929688 -2.515625 8.328125 -4.453125 C 6.722656 -6.398438 5.460938 -8.8125 4.546875 -11.6875 C 3.640625 -14.570312 3.1875 -17.925781 3.1875 -21.75 C 3.1875 -25.394531 3.6875 -28.671875 4.6875 -31.578125 C 5.6875 -34.492188 7.066406 -36.96875 8.828125 -39 C 10.585938 -41.03125 12.632812 -42.59375 14.96875 -43.6875 C 17.300781 -44.78125 19.835938 -45.328125 22.578125 -45.328125 C 25.117188 -45.328125 27.359375 -44.898438 29.296875 -44.046875 C 31.242188 -43.203125 33.003906 -41.988281 34.578125 -40.40625 L 34.578125 -56.890625 L 27.296875 -57.796875 L 27.296875 -61.4375 L 45.59375 -65.53125 L 46.875 -64.796875 L 46.515625 -51.875 L 46.515625 -5.09375 Z M 51.78125 -4 "/></g></g></g><g fill="#000000" fill-opacity="1"><g transform="translate(194.378323, 312.922148)"><g><path d="M 21.484375 -35.5 C 23.179688 -38.59375 25.117188 -41.003906 27.296875 -42.734375 C 29.484375 -44.460938 31.640625 -45.328125 33.765625 -45.328125 C 35.035156 -45.328125 36.351562 -44.929688 37.71875 -44.140625 C 39.09375 -43.347656 40.019531 -41.863281 40.5 -39.6875 C 40.5 -37.675781 39.921875 -36.050781 38.765625 -34.8125 C 37.617188 -33.570312 36.070312 -32.953125 34.125 -32.953125 C 31.757812 -32.953125 29.425781 -34.191406 27.125 -36.671875 L 26.9375 -36.859375 C 25.84375 -35.828125 24.828125 -34.660156 23.890625 -33.359375 C 22.953125 -32.054688 22.148438 -30.554688 21.484375 -28.859375 L 21.484375 -19.109375 C 21.484375 -17.171875 21.484375 -14.957031 21.484375 -12.46875 C 21.484375 -9.976562 21.515625 -7.613281 21.578125 -5.375 L 28.484375 -4 L 28.484375 0 L 3.453125 0 L 3.453125 -4 L 9.015625 -5.09375 C 9.066406 -7.34375 9.09375 -9.753906 9.09375 -12.328125 C 9.09375 -14.910156 9.09375 -17.171875 9.09375 -19.109375 L 9.09375 -24.390625 C 9.09375 -25.660156 9.09375 -26.75 9.09375 -27.65625 C 9.09375 -28.570312 9.078125 -29.4375 9.046875 -30.25 C 9.023438 -31.070312 9 -31.863281 8.96875 -32.625 C 8.9375 -33.382812 8.890625 -34.21875 8.828125 -35.125 L 2.734375 -35.953125 L 2.734375 -39.40625 L 19.203125 -45.328125 L 20.5625 -44.421875 Z M 21.484375 -35.5 "/></g></g></g><g fill="#000000" fill-opacity="1"><g transform="translate(235.97338, 312.922148)"><g><path d="M 27.390625 -25.9375 C 29.578125 -25.9375 31.078125 -26.390625 31.890625 -27.296875 C 32.710938 -28.210938 33.125 -29.640625 33.125 -31.578125 C 33.125 -34.492188 32.515625 -36.753906 31.296875 -38.359375 C 30.085938 -39.972656 28.515625 -40.78125 26.578125 -40.78125 C 25.546875 -40.78125 24.484375 -40.535156 23.390625 -40.046875 C 22.296875 -39.554688 21.28125 -38.734375 20.34375 -37.578125 C 19.40625 -36.429688 18.585938 -34.898438 17.890625 -32.984375 C 17.191406 -31.078125 16.71875 -28.726562 16.46875 -25.9375 Z M 16.375 -21.390625 C 16.5625 -15.984375 17.882812 -12.019531 20.34375 -9.5 C 22.800781 -6.988281 25.878906 -5.734375 29.578125 -5.734375 C 32.242188 -5.734375 34.441406 -6.320312 36.171875 -7.5 C 37.898438 -8.6875 39.460938 -10.375 40.859375 -12.5625 L 43.953125 -10.828125 C 42.742188 -6.828125 40.46875 -3.796875 37.125 -1.734375 C 33.789062 0.328125 29.820312 1.359375 25.21875 1.359375 C 21.9375 1.359375 18.929688 0.84375 16.203125 -0.1875 C 13.472656 -1.21875 11.148438 -2.71875 9.234375 -4.6875 C 7.328125 -6.65625 5.84375 -9.082031 4.78125 -11.96875 C 3.71875 -14.851562 3.1875 -18.144531 3.1875 -21.84375 C 3.1875 -25.300781 3.757812 -28.457031 4.90625 -31.3125 C 6.0625 -34.164062 7.65625 -36.632812 9.6875 -38.71875 C 11.71875 -40.8125 14.128906 -42.4375 16.921875 -43.59375 C 19.710938 -44.75 22.71875 -45.328125 25.9375 -45.328125 C 28.851562 -45.328125 31.476562 -44.851562 33.8125 -43.90625 C 36.144531 -42.96875 38.128906 -41.648438 39.765625 -39.953125 C 41.410156 -38.253906 42.671875 -36.222656 43.546875 -33.859375 C 44.429688 -31.492188 44.875 -28.914062 44.875 -26.125 C 44.875 -24.425781 44.691406 -22.847656 44.328125 -21.390625 Z M 16.375 -21.390625 "/></g></g></g><g fill="#000000" fill-opacity="1"><g transform="translate(283.939671, 312.922148)"><g><path d="M 28.859375 -23.484375 C 27.703125 -23.179688 26.625 -22.863281 25.625 -22.53125 C 24.625 -22.195312 23.757812 -21.878906 23.03125 -21.578125 C 20.351562 -20.535156 18.5 -19.226562 17.46875 -17.65625 C 16.4375 -16.082031 15.921875 -14.320312 15.921875 -12.375 C 15.921875 -11.164062 16.085938 -10.195312 16.421875 -9.46875 C 16.753906 -8.738281 17.164062 -8.128906 17.65625 -7.640625 C 18.925781 -6.367188 20.625 -5.734375 22.75 -5.734375 C 23.71875 -5.734375 24.65625 -5.898438 25.5625 -6.234375 C 26.476562 -6.566406 27.578125 -7.1875 28.859375 -8.09375 Z M 49.0625 -5.734375 C 47.84375 -3.242188 46.457031 -1.515625 44.90625 -0.546875 C 43.363281 0.421875 41.441406 0.90625 39.140625 0.90625 C 36.648438 0.90625 34.582031 0.421875 32.9375 -0.546875 C 31.300781 -1.515625 30.148438 -2.789062 29.484375 -4.375 C 27.421875 -2.488281 25.429688 -1.0625 23.515625 -0.09375 C 21.609375 0.875 19.226562 1.359375 16.375 1.359375 C 12.738281 1.359375 9.78125 0.4375 7.5 -1.40625 C 5.226562 -3.257812 4.09375 -5.976562 4.09375 -9.5625 C 4.09375 -10.957031 4.316406 -12.335938 4.765625 -13.703125 C 5.222656 -15.066406 6.070312 -16.398438 7.3125 -17.703125 C 8.5625 -19.003906 10.28125 -20.257812 12.46875 -21.46875 C 14.65625 -22.6875 17.476562 -23.875 20.9375 -25.03125 C 21.96875 -25.394531 23.179688 -25.773438 24.578125 -26.171875 C 25.972656 -26.566406 27.398438 -26.972656 28.859375 -27.390625 L 28.859375 -30.125 C 28.859375 -33.945312 28.28125 -36.675781 27.125 -38.3125 C 25.96875 -39.957031 23.9375 -40.78125 21.03125 -40.78125 C 20.539062 -40.78125 20.066406 -40.765625 19.609375 -40.734375 C 19.160156 -40.703125 18.691406 -40.65625 18.203125 -40.59375 L 17.46875 -35.3125 C 17.164062 -32.945312 16.4375 -31.1875 15.28125 -30.03125 C 14.132812 -28.882812 12.769531 -28.3125 11.1875 -28.3125 C 9.789062 -28.3125 8.59375 -28.734375 7.59375 -29.578125 C 6.59375 -30.429688 5.941406 -31.554688 5.640625 -32.953125 C 6.066406 -36.523438 7.976562 -39.476562 11.375 -41.8125 C 14.769531 -44.15625 19.382812 -45.328125 25.21875 -45.328125 C 28.0625 -45.328125 30.5 -45.007812 32.53125 -44.375 C 34.570312 -43.738281 36.226562 -42.707031 37.5 -41.28125 C 38.769531 -39.851562 39.707031 -37.96875 40.3125 -35.625 C 40.925781 -33.289062 41.234375 -30.425781 41.234375 -27.03125 L 41.234375 -8.28125 C 41.234375 -7.3125 41.414062 -6.519531 41.78125 -5.90625 C 42.144531 -5.300781 42.71875 -5 43.5 -5 C 44.113281 -5 44.597656 -5.179688 44.953125 -5.546875 C 45.316406 -5.910156 45.742188 -6.367188 46.234375 -6.921875 L 46.6875 -7.46875 Z M 49.0625 -5.734375 "/></g></g></g><g fill="#000000" fill-opacity="1"><g transform="translate(332.534455, 312.922148)"><g/></g></g><g fill="#000000" fill-opacity="1"><g transform="translate(65.927284, 348.45546)"><g><path d="M 2.359375 -0.640625 C 2.359375 -0.203125 2.5625 0 3 0 L 4.222656 0 C 4.660156 0 4.863281 -0.203125 4.863281 -0.640625 L 4.863281 -8.15625 L 10.339844 -8.15625 C 14.09375 -8.15625 16.980469 -11.269531 16.980469 -14.851562 C 16.980469 -18.523438 14.066406 -21.609375 10.25 -21.609375 L 3.027344 -21.609375 C 2.59375 -21.609375 2.359375 -21.375 2.359375 -20.910156 Z M 14.472656 -14.882812 C 14.472656 -12.609375 12.550781 -10.628906 10.25 -10.628906 L 4.863281 -10.628906 L 4.863281 -19.132812 L 10.25 -19.132812 C 12.609375 -19.132812 14.472656 -17.125 14.472656 -14.882812 Z M 14.472656 -14.882812 "/></g></g></g><g fill="#000000" fill-opacity="1"><g transform="translate(91.555358, 348.45546)"><g><path d="M 5.007812 -4.71875 L 15.609375 -4.71875 L 17.300781 -0.554688 C 17.414062 -0.234375 17.707031 0 18.085938 0 L 19.335938 0 C 19.714844 0 19.976562 -0.144531 19.976562 -0.464844 C 19.976562 -0.582031 19.890625 -0.816406 19.890625 -0.816406 L 11.503906 -21.085938 C 11.417969 -21.289062 11.269531 -21.609375 10.777344 -21.609375 L 9.929688 -21.609375 C 9.40625 -21.609375 9.289062 -21.289062 9.203125 -21.085938 C 9.203125 -21.054688 9.171875 -21.054688 0.757812 -0.84375 C 0.757812 -0.84375 0.699219 -0.667969 0.699219 -0.464844 C 0.699219 -0.144531 0.902344 0 1.308594 0 L 2.5625 0 C 2.96875 0 3.203125 -0.175781 3.378906 -0.582031 Z M 10.339844 -17.851562 L 14.589844 -7.195312 L 6.058594 -7.195312 Z M 10.339844 -17.851562 "/></g></g></g><g fill="#000000" fill-opacity="1"><g transform="translate(119.716903, 348.45546)"><g><path d="M 14.589844 -17.125 C 14.765625 -16.949219 14.941406 -16.832031 15.113281 -16.832031 C 15.230469 -16.832031 15.375 -16.921875 15.492188 -17.035156 L 16.367188 -17.882812 C 16.511719 -18.027344 16.601562 -18.171875 16.601562 -18.347656 C 16.601562 -18.582031 16.28125 -18.902344 16.046875 -19.164062 C 14.386719 -20.765625 11.765625 -21.929688 9.4375 -21.929688 C 4.894531 -21.929688 1.953125 -19.453125 1.953125 -15.902344 C 1.953125 -12.960938 4.339844 -11.386719 9.117188 -10.164062 C 12.144531 -9.378906 15 -8.679688 15 -6.289062 C 15 -3.464844 11.851562 -2.15625 9.4375 -2.15625 C 8.039062 -2.15625 5.328125 -3.085938 3.609375 -4.863281 C 3.523438 -4.949219 3.234375 -5.300781 2.96875 -5.300781 C 2.855469 -5.300781 2.648438 -5.242188 2.535156 -5.15625 L 1.601562 -4.367188 C 1.425781 -4.222656 1.339844 -4.078125 1.339844 -3.902344 C 1.339844 -3.757812 1.425781 -3.582031 1.574219 -3.378906 C 3.4375 -0.960938 6.347656 0.292969 9.347656 0.292969 C 13.890625 0.292969 17.503906 -2.300781 17.503906 -6.464844 C 17.503906 -10.542969 13.28125 -11.5625 9.8125 -12.523438 C 7.308594 -13.191406 4.628906 -14.007812 4.628906 -15.988281 C 4.628906 -17.675781 6.027344 -19.484375 9.320312 -19.484375 C 11.765625 -19.484375 13.660156 -17.96875 14.589844 -17.125 Z M 14.589844 -17.125 "/></g></g></g><g fill="#000000" fill-opacity="1"><g transform="translate(145.694419, 348.45546)"><g><path d="M 1.28125 -21.609375 C 0.875 -21.609375 0.613281 -21.347656 0.613281 -20.96875 L 0.613281 -19.773438 C 0.613281 -19.308594 0.875 -19.074219 1.28125 -19.074219 L 7.515625 -19.074219 L 7.515625 -0.640625 C 7.515625 -0.261719 7.804688 0 8.183594 0 L 9.378906 0 C 9.8125 0 10.046875 -0.292969 10.046875 -0.640625 L 10.046875 -19.074219 L 16.25 -19.074219 C 16.714844 -19.074219 16.949219 -19.394531 16.949219 -19.773438 L 16.949219 -20.96875 C 16.921875 -21.40625 16.601562 -21.609375 16.25 -21.609375 Z M 1.28125 -21.609375 "/></g></g></g><g fill="#000000" fill-opacity="1"><g transform="translate(170.798319, 348.45546)"><g><path d="M 3 -21.609375 C 2.59375 -21.609375 2.359375 -21.375 2.359375 -20.9375 L 2.359375 -0.613281 C 2.359375 -0.175781 2.59375 0 3 0 L 17.125 0 C 17.53125 0 17.765625 -0.234375 17.765625 -0.640625 L 17.765625 -1.835938 C 17.765625 -2.300781 17.53125 -2.535156 17.09375 -2.535156 L 4.863281 -2.535156 L 4.863281 -10.105469 L 14.503906 -10.105469 C 14.910156 -10.105469 15.144531 -10.425781 15.144531 -10.777344 L 15.144531 -11.96875 C 15.144531 -12.433594 14.851562 -12.640625 14.503906 -12.640625 L 4.863281 -12.640625 L 4.863281 -19.074219 L 16.980469 -19.074219 C 17.414062 -19.074219 17.648438 -19.394531 17.648438 -19.746094 L 17.648438 -20.9375 C 17.648438 -21.40625 17.414062 -21.609375 17.007812 -21.609375 Z M 3 -21.609375 "/></g></g></g><g fill="#000000" fill-opacity="1"><g transform="translate(196.80496, 348.45546)"><g><path d="M 4.863281 -2.476562 L 4.863281 -20.96875 C 4.863281 -21.375 4.601562 -21.609375 4.222656 -21.609375 L 3.027344 -21.609375 C 2.59375 -21.609375 2.359375 -21.316406 2.359375 -20.96875 L 2.359375 -0.640625 C 2.359375 -0.203125 2.5625 0 3 0 L 15.375 0 C 15.753906 0 16.019531 -0.292969 16.019531 -0.640625 L 16.019531 -1.804688 C 16.019531 -2.242188 15.726562 -2.476562 15.375 -2.476562 Z M 4.863281 -2.476562 "/></g></g></g><g fill="#000000" fill-opacity="1"><g transform="translate(220.831387, 348.45546)"><g><path d="M 3 -21.609375 C 2.59375 -21.609375 2.359375 -21.375 2.359375 -20.9375 L 2.359375 -0.613281 C 2.359375 -0.175781 2.59375 0 3 0 L 17.125 0 C 17.53125 0 17.765625 -0.234375 17.765625 -0.640625 L 17.765625 -1.835938 C 17.765625 -2.300781 17.53125 -2.535156 17.09375 -2.535156 L 4.863281 -2.535156 L 4.863281 -10.105469 L 14.503906 -10.105469 C 14.910156 -10.105469 15.144531 -10.425781 15.144531 -10.777344 L 15.144531 -11.96875 C 15.144531 -12.433594 14.851562 -12.640625 14.503906 -12.640625 L 4.863281 -12.640625 L 4.863281 -19.074219 L 16.980469 -19.074219 C 17.414062 -19.074219 17.648438 -19.394531 17.648438 -19.746094 L 17.648438 -20.9375 C 17.648438 -21.40625 17.414062 -21.609375 17.007812 -21.609375 Z M 3 -21.609375 "/></g></g></g><g fill="#000000" fill-opacity="1"><g transform="translate(246.838029, 348.45546)"><g><path d="M 15.753906 -14.765625 C 15.753906 -12.40625 13.890625 -10.398438 11.445312 -10.398438 L 4.863281 -10.398438 L 4.863281 -19.132812 L 11.417969 -19.132812 C 13.863281 -19.132812 15.753906 -17.066406 15.753906 -14.765625 Z M 2.359375 -0.640625 C 2.359375 -0.203125 2.59375 0 3 0 L 4.222656 0 C 4.660156 0 4.863281 -0.203125 4.863281 -0.640625 L 4.863281 -7.921875 L 9.960938 -7.921875 C 10.339844 -7.921875 11.5625 -7.921875 11.765625 -7.949219 L 15.289062 -0.554688 C 15.464844 -0.203125 15.667969 0 16.046875 0 L 17.648438 0 C 17.996094 0 18.171875 -0.144531 18.171875 -0.378906 C 18.171875 -0.4375 18.144531 -0.523438 18.113281 -0.640625 L 14.269531 -8.53125 C 16.628906 -9.609375 18.261719 -12 18.261719 -14.734375 C 18.261719 -18.523438 15.230469 -21.609375 11.417969 -21.609375 L 3 -21.609375 C 2.59375 -21.609375 2.359375 -21.375 2.359375 -20.910156 Z M 2.359375 -0.640625 "/></g></g></g><g fill="#000000" fill-opacity="1"><g transform="translate(273.689161, 348.45546)"><g><path d="M 4.863281 -20.96875 C 4.863281 -21.347656 4.601562 -21.609375 4.222656 -21.609375 L 3 -21.609375 C 2.59375 -21.609375 2.359375 -21.375 2.359375 -20.96875 L 2.359375 -0.640625 C 2.359375 -0.203125 2.5625 0 3 0 L 4.222656 0 C 4.628906 0 4.863281 -0.203125 4.863281 -0.640625 Z M 5.910156 -27.085938 C 6.144531 -27.578125 6.203125 -27.929688 5.679688 -27.929688 L 4.515625 -27.929688 C 4.136719 -27.929688 3.902344 -27.753906 3.726562 -27.316406 L 2.445312 -24.347656 C 2.242188 -23.910156 2.183594 -23.414062 2.765625 -23.414062 L 3.816406 -23.414062 C 4.164062 -23.414062 4.398438 -23.589844 4.601562 -24.027344 Z M 5.910156 -27.085938 "/></g></g></g><g fill="#000000" fill-opacity="1"><g transform="translate(288.222315, 348.45546)"><g><path d="M 5.007812 -4.71875 L 15.609375 -4.71875 L 17.300781 -0.554688 C 17.414062 -0.234375 17.707031 0 18.085938 0 L 19.335938 0 C 19.714844 0 19.976562 -0.144531 19.976562 -0.464844 C 19.976562 -0.582031 19.890625 -0.816406 19.890625 -0.816406 L 11.503906 -21.085938 C 11.417969 -21.289062 11.269531 -21.609375 10.777344 -21.609375 L 9.929688 -21.609375 C 9.40625 -21.609375 9.289062 -21.289062 9.203125 -21.085938 C 9.203125 -21.054688 9.171875 -21.054688 0.757812 -0.84375 C 0.757812 -0.84375 0.699219 -0.667969 0.699219 -0.464844 C 0.699219 -0.144531 0.902344 0 1.308594 0 L 2.5625 0 C 2.96875 0 3.203125 -0.175781 3.378906 -0.582031 Z M 10.339844 -17.851562 L 14.589844 -7.195312 L 6.058594 -7.195312 Z M 10.339844 -17.851562 "/></g></g></g></svg>